<?xml version="1.0" encoding="utf-8"?>
<!-- Generator: Adobe Illustrator 23.0.6, SVG Export Plug-In . SVG Version: 6.00 Build 0)  -->
<svg version="1.1" id="Layer_1" xmlns="http://www.w3.org/2000/svg" xmlns:xlink="http://www.w3.org/1999/xlink" x="0px" y="0px"
	 viewBox="0 0 947 306.4" style="enable-background:new 0 0 947 306.4;" xml:space="preserve">
<style type="text/css">
	.st0{fill:#6F6F6E;}
	.st1{fill:#FF871D;}
	.st2{fill:#F08426;}
	.st3{font-family:'EurostileRegular';}
	.st4{font-size:69.3678px;}
</style>
<g>
	<g>
		<g>
			<path class="st0" d="M349.2,205.2h-0.3c-3.9,8.5-13.3,10.1-22.9,10.1c-19.4,0-26.3-7.5-26.3-25.8v-44.9h11v44.9
				c0,11.3,0.8,17.3,15.1,17.3c15.5,0,23.5-2.4,23.5-19v-43.1h11v69.9h-11.2V205.2z"/>
			<path class="st0" d="M418.6,153.1h-28.4v44.3c0.1,7.6,2.2,9.3,10.3,9.3c10.3,0,10.3-5.2,10.3-11.9v-5.2h10.5v5.2
				c0,13.8-6,20.4-21.1,20.4c-17.2,0-21.1-4.7-21.1-21v-41.2h-9.8v-8.5h9.8v-16.9h11v16.9h28.4V153.1z"/>
			<path class="st0" d="M461.2,143.8c27.3,0,32.6,6.3,32.6,35.8c0,29.4-5.3,35.7-32.6,35.7c-27.3,0-32.6-6.3-32.6-35.7
				C428.6,150,433.9,143.8,461.2,143.8z M461.2,206.8c19.7,0,21.1-2.9,21.1-27.2c0-24.4-1.4-27.3-21.1-27.3
				c-19.7,0-21.1,2.9-21.1,27.3C440.1,203.8,441.5,206.8,461.2,206.8z"/>
			<path class="st1" d="M518.7,158.6h53.1v9.3h-53.1v36.6h55.5v10h-67.4v-99.9h67.4v10h-55.5V158.6z"/>
			<path class="st0" d="M618.7,214.5h-15.5l-24.3-69.9H590l20.8,61.9h0.3l20.1-61.9h12L618.7,214.5z"/>
			<path class="st0" d="M702,214.5v-7.2l-0.3-0.3c-4.2,8-15,8.3-24.2,8.3c-16.5,0-28-2.9-28-21.2c0-19.3,10.5-22,28.7-22
				c7.3,0,21.5,0.7,23.1,7.1h0.7v-12.9c0-12.8-7.1-14-19.6-14c-8.7,0-19.3,0-19.2,9.6v2.4h-11.5v-1.5c0-18,13-19.2,29.4-19
				c18.5-0.1,32,1.7,31.9,23v47.7H702z M701.7,193.7c0-13.2-8.3-13.1-22.2-13.1c-13.1,0-18.5,0.8-18.5,12.1c0,13.3,5.7,14,18.5,14
				C690.5,206.8,701.7,206.5,701.7,193.7z"/>
			<path class="st0" d="M743,214.5h-11v-99.9h11V214.5z"/>
			<path class="st0" d="M811.1,205.2h-0.3c-3.9,8.5-13.3,10.1-22.9,10.1c-19.4,0-26.3-7.5-26.3-25.8v-44.9h11v44.9
				c0,11.3,0.8,17.3,15.1,17.3c15.5,0,23.5-2.4,23.5-19v-43.1h11v69.9h-11.2V205.2z"/>
			<path class="st0" d="M891.3,214.5v-7.2L891,207c-4.2,8-15,8.3-24.2,8.3c-16.5,0-28-2.9-28-21.2c0-19.3,10.5-22,28.7-22
				c7.3,0,21.5,0.7,23.1,7.1h0.7v-12.9c0-12.8-7.1-14-19.6-14c-8.7,0-19.3,0-19.2,9.6v2.4h-11.5v-1.5c0-18,13-19.2,29.4-19
				c18.5-0.1,32,1.7,31.9,23v47.7H891.3z M891,193.7c0-13.2-8.3-13.1-22.2-13.1c-13.1,0-18.5,0.8-18.5,12.1c0,13.3,5.7,14,18.5,14
				C879.9,206.8,891,206.5,891,193.7z"/>
		</g>
		<g>
			<g>
				<polygon class="st1" points="288.2,190.6 262.3,216.5 201.2,155.5 140.2,216.5 114.3,190.6 201.2,103.7 				"/>
			</g>
		</g>
		<polygon class="st0" points="108.9,9.7 83,35.6 132.6,85.2 7.3,85.2 7.3,106.8 133.9,106.8 83,157.7 108.9,183.6 195.9,96.6 		"/>
		<g>
			<g>
				<g>
					<path class="st0" d="M916.7,121.8c1.3-0.2,3.3-0.4,5.4-0.4c2.8,0,4.7,0.5,6,1.6c1.1,0.9,1.7,2.2,1.7,3.9c0,2.5-1.7,4.2-3.5,4.9
						v0.1c1.4,0.5,2.2,1.9,2.7,3.8c0.6,2.4,1.1,4.7,1.5,5.4h-3.7c-0.3-0.6-0.7-2.2-1.3-4.6c-0.6-2.5-1.5-3.3-3.5-3.4h-1.8v8h-3.5
						V121.8z M920.2,130.4h2.1c2.4,0,3.9-1.3,3.9-3.2c0-2.1-1.5-3.1-3.8-3.1c-1.1,0-1.8,0.1-2.2,0.2V130.4z"/>
				</g>
				<path class="st0" d="M922.8,114.7c-9.1,0-16.6,7.4-16.6,16.6c0,9.1,7.4,16.6,16.6,16.6c9.1,0,16.6-7.4,16.6-16.6
					C939.3,122.1,931.9,114.7,922.8,114.7z M922.8,145.4c-7.8,0-14.2-6.3-14.2-14.2c0-7.8,6.3-14.2,14.2-14.2
					c7.8,0,14.2,6.3,14.2,14.2C936.9,139.1,930.6,145.4,922.8,145.4z"/>
			</g>
		</g>
	</g>
	<g>
		<text transform="matrix(1 0 0 1 665.2539 277.1123)" class="st2 st3 st4">Seguros</text>
	</g>
</g>
</svg>
